<?xml version="1.0" encoding="UTF-8"?>
<svg version="1.1" xmlns="http://www.w3.org/2000/svg" width="192" height="192">
<path d="M0 0 C0.81847412 0.23219238 1.63694824 0.46438477 2.48022461 0.70361328 C8.6624305 2.64448527 12.16954602 5.46228148 15.625 11.0625 C16.95043138 14.48071778 17.34160418 16.49685708 16.8125 20.125 C14.2755621 24.65524625 11.50838751 29.29780399 6.35546875 30.87890625 C1.29939438 31.23009995 -3.1170557 29.98469204 -8 28.75 C-25.85517126 24.32570978 -50.13887545 20.66826125 -66.8125 30.5625 C-71.74637848 34.10477173 -74.91053405 36.97234589 -76.1875 43.125 C-76.33713258 47.75529698 -75.67559306 51.20304645 -73.5 55.3125 C-63.21254647 65.80223492 -42.56806755 68.01857394 -28.97265625 71.4375 C-12.10312656 75.70740842 6.59048358 81.2590669 16.5 96.765625 C23.49605436 109.07598988 25.33247921 123.88447862 21.75 137.75 C17.14469621 150.00918895 7.28124088 159.34271003 -4.1875 165.125 C-17.07505342 170.85631982 -28.57630005 172.53873835 -42.625 172.5 C-43.33170837 172.49978851 -44.03841675 172.49957703 -44.76654053 172.49935913 C-56.2905557 172.46498486 -67.12970305 171.52803495 -78.1875 168.125 C-78.82768066 167.93244629 -79.46786133 167.73989258 -80.12744141 167.54150391 C-102.0682716 160.76391068 -102.0682716 160.76391068 -108.1875 152.125 C-109.78717314 148.92565372 -109.55110189 145.6051895 -109.1875 142.125 C-107.60009965 137.99775908 -105.81900401 134.70527917 -102.1875 132.125 C-94.64141847 129.9374309 -88.4724373 132.27427115 -81.375 134.9375 C-61.98618617 142.07288235 -38.0564344 146.1183375 -18.4375 137.25 C-13.21368526 133.83442882 -10.48580657 130.26244924 -9.1875 124.125 C-8.95567031 119.27374918 -9.3230831 116.15295523 -12.5 112.375 C-23.71749305 104.66878623 -38.32228635 102.27429749 -51.2734375 99.00268555 C-66.63150453 95.10335023 -80.45196647 90.95722225 -93.1875 81.125 C-94.074375 80.526875 -94.96125 79.92875 -95.875 79.3125 C-103.80984973 71.80656107 -107.71731257 63.26881544 -108.4296875 52.4453125 C-108.71511112 36.6835859 -105.14748855 22.9915755 -94.1875 11.125 C-68.19900831 -10.37906446 -30.8730472 -8.99875393 0 0 Z " fill="#7057E2" transform="translate(147.1875,18.875)"/>
<path d="M0 0 C22.77 0 45.54 0 69 0 C68.67 0.66 68.34 1.32 68 2 C65.78810739 2.51780436 63.55297248 2.93716905 61.3125 3.3125 C42.47939038 6.7900766 25.80434002 15.15611086 14.1875 30.8125 C6.49633492 42.65617204 4.27049906 55.29612273 2 69 C1.34 68.67 0.68 68.34 0 68 C0 45.56 0 23.12 0 0 Z " fill="#7158E2" transform="translate(22,0)"/>
</svg>
